<?xml version="1.0" encoding="UTF-8"?>
<svg xmlns="http://www.w3.org/2000/svg" xmlns:xlink="http://www.w3.org/1999/xlink" width="16px" height="16px" viewBox="0 0 16 16" version="1.1">
<g id="surface1">
<path style=" stroke:none;fill-rule:nonzero;fill:rgb(0%,0%,0%);fill-opacity:1;" d="M 10 8 C 11.472656 8 12.667969 6.808594 12.667969 5.332031 C 12.667969 3.859375 11.472656 2.667969 10 2.667969 C 8.527344 2.667969 7.332031 3.859375 7.332031 5.332031 C 7.332031 6.808594 8.527344 8 10 8 Z M 4 6.667969 L 4 4.667969 L 2.667969 4.667969 L 2.667969 6.667969 L 0.667969 6.667969 L 0.667969 8 L 2.667969 8 L 2.667969 10 L 4 10 L 4 8 L 6 8 L 6 6.667969 Z M 10 9.332031 C 8.21875 9.332031 4.667969 10.226562 4.667969 12 L 4.667969 13.332031 L 15.332031 13.332031 L 15.332031 12 C 15.332031 10.226562 11.78125 9.332031 10 9.332031 Z M 10 9.332031 "/>
</g>
</svg>
